<svg xmlns="http://www.w3.org/2000/svg" width="64" height="64" viewBox="0 0 64 64"><g stroke="#0e7bff" transform="translate(0 -988.362)"><circle style="isolation:auto;mix-blend-mode:normal" cx="13.5" cy="991.862" r="1" fill="#6ca6fd" stroke="none" color="#000" overflow="visible"/><circle cx="860.591" cy="549.209" r="1" fill="#6ca6fd" stroke="none" color="#000" overflow="visible" transform="scale(-1 1) rotate(60)" style="isolation:auto;mix-blend-mode:normal"/><path fill="#b2cdf8" fill-rule="evenodd" stroke="none" d="m 36.886279,1024.2631 11.835974,5.8617 c 2.378163,1.1777 4.777798,2.1785 4.777798,4.8847 l 0,14.8527 -4.777798,0 -33.444752,0 -4.777799,0 0,-14.8527 c 0,-2.7062 2.866648,-3.9078 4.777799,-4.8847 1.911149,-0.977 11.835972,-5.8617 11.835972,-5.8617 l 4.886403,2.0771 z"/><path fill="none" stroke="none" d="m 26.999998,1024.262 0,-4.5625 10,0 0,4.5625 -5,2.2097 z"/><path fill="#6ca6fd" fill-rule="evenodd" stroke="none" d="m 36.886279,1024.2631 11.835974,5.8617 c 2.378163,1.1777 4.777798,2.1785 4.777798,4.8847 l 0,14.8527 -4.777798,0 -16.722253,0 -1.24e-4,-23.522 z"/><path fill="#f4f7f8" fill-rule="evenodd" stroke="none" d="m 26.999999,1024.2622 5,2.2182 -4,3.8818 -3.947506,-4.5752"/><path fill="#dae7fc" stroke="none" d="m 26.999998,1024.262 0,-4.5625 10,0 z"/><path fill="#f4f7f8" stroke="none" d="m 39.999998,1002.7048 0,10.5571 c 0,4.432 -3.568,8 -8,8 -4.432,0 -8,-3.568 -8,-8 l 0,-10.5571"/><path fill="#dae7fc" stroke="none" d="m 39.999998,1002.7048 0,2.8594 -16,7.25 0,-10.1094"/><path fill="#f4f7f8" stroke="none" d="M-22.345353 1008.1354c.218094.3204.345355.7081.345355 1.1266l0 2c0 1.108-.892 2-2 2l.09812-2.1656zM-40 1013.262c-1.108 0-2-.892-2-2l0-2c0-.1385.01394-.2736.04049-.4041.02656-.1304.06573-.2561.116196-.3758.05047-.1198.112234-.2335.183976-.3398.07174-.1064.153461-.2054.243836-.2958l1.379626 2.7077z" transform="scale(-1 1)"/><circle cx="35.5" cy="1010.862" r=".5" fill="#0e7bff" stroke="none"/><circle cx="28.5" cy="1010.862" r=".5" fill="#0e7bff" stroke="none"/><path fill="#f4f7f8" fill-rule="evenodd" stroke="none" d="m 36.999999,1024.2622 -5,2.2182 4,3.8818 3.932643,-4.5579"/><path fill="#6ca6fd" stroke="none" d="m 33.658861,1029.8692 1.841138,13.5518 -3.5,4.8412 -3.5,-4.8412 1.840626,-13.5481"/><path fill="none" d="m 36.886279,1024.2631 11.835974,5.8617 c 2.378163,1.1777 4.777798,2.1785 4.777798,4.8847 l 0,14.8527 -4.777798,0 -33.444752,0 -4.777799,0 0,-14.8527 c 0,-2.7062 2.866648,-3.9078 4.777799,-4.8847 1.911149,-0.977 11.835972,-5.8617 11.835972,-5.8617"/><path fill="none" stroke-linecap="round" stroke-linejoin="round" d="M31.999999 1011.8692l0 1.9983M26.503564 1009.9698a2.305213 2.2146192 0 0 1 1.996373-1.1073 2.305213 2.2146192 0 0 1 1.996373 1.1073M33.503566 1009.9698a2.305213 2.2146192 0 0 1 1.996373-1.1073 2.305213 2.2146192 0 0 1 1.996373 1.1073"/><path fill="none" d="M-22.345353 1008.1354c.218094.3204.345355.7081.345355 1.1266l0 2c0 1.108-.892 2-2 2M-40 1013.262c-1.108 0-2-.892-2-2l0-2c0-.1385.01394-.2736.04049-.4041.02656-.1304.06573-.2561.116196-.3758.05047-.1198.112234-.2335.183976-.3398.07174-.1064.153461-.2054.243836-.2958" transform="scale(-1 1)"/><path fill="none" stroke-linecap="round" stroke-linejoin="round" d="m 36.999998,1019.6995 0,4.5625 m -10,0 0,-4.5625"/><path fill="none" d="m 39.999998,1010.262 0,2.9999 c 0,4.432 -3.568,8 -8,8 -4.432,0 -8,-3.568 -8,-8 l 0,-2.9999"/><path fill="none" stroke-linecap="round" stroke-linejoin="round" d="m 33.658861,1029.8692 1.841138,13.5518 -3.5,4.8412 -3.5,-4.8412 1.840626,-13.5481"/><rect width="1" height="10" x="17" y="1040.312" fill="#0e7bff" stroke="none"/><rect width="1" height="10" x="46" y="1040.312" fill="#0e7bff" stroke="none"/><path fill="#6ca6fd" stroke="none" d="m 29.499969,1028.9844 2.5,-2.6223 2.50005,2.6224 -0.83686,0.8777 -3.32915,0 z"/><path fill="none" stroke-linecap="round" stroke-linejoin="round" d="m 29.499969,1028.9844 2.5,-2.6223 2.50005,2.6224 -0.83686,0.8777 -3.32915,0 z"/><path fill="none" stroke-linecap="round" stroke-linejoin="round" d="M26.999999 1024.2622l5 2.2182-4 3.8818-3.947506-4.5752M36.999999 1024.2622l-5 2.2182 4 3.8818 3.932643-4.5579M31.999999 1011.8692l0 1.9983M26.503564 1009.9698a2.305213 2.2146192 0 0 1 1.996373-1.1073 2.305213 2.2146192 0 0 1 1.996373 1.1073M33.503566 1009.9698a2.305213 2.2146192 0 0 1 1.996373-1.1073 2.305213 2.2146192 0 0 1 1.996373 1.1073M34.434674 1016.8559a3.4999802 3.4999802 0 0 1-4.869274.047"/><g fill="none" stroke-linecap="round" stroke-linejoin="round" transform="translate(-341 -122)"><path fill="#6ca6fd" stroke="none" d="m 438,214 a 10,10 0 0 0 -10,10 10,10 0 0 0 2,5.98438 l 0,-4.10352 c 3.27405,0.60206 6.66747,-0.079 9.45117,-1.95313 1.01433,-0.68291 1.90867,-1.50531 2.67578,-2.42578 0.90273,1.25536 2.27858,2.14232 3.87305,2.40821 l 0,6.07031 A 10,10 0 0 0 448,224 10,10 0 0 0 438,214 Z" transform="translate(-65 903.362)"/><path d="m 438,214 a 10,10 0 0 0 -10,10 10,10 0 0 0 2,5.98438 l 0,-4.10352 c 3.27405,0.60206 6.66747,-0.079 9.45117,-1.95313 1.01433,-0.68291 1.90867,-1.50531 2.67578,-2.42578 0.90273,1.25536 2.27858,2.14232 3.87305,2.40821 l 0,6.07031 A 10,10 0 0 0 448,224 10,10 0 0 0 438,214 Z" transform="translate(-65 903.362)"/></g><path fill="none" stroke-linecap="round" stroke-linejoin="round" d="M16.080735 1017.2815l1.414214-1.4142M16.080735 1015.8673l1.414214 1.4142M6.5000487 1006.8623l.000009-2M5.5000577 1005.8623l1.999991 0"/><circle cx="13.5" cy="991.862" r="1" fill="none" stroke-linecap="round" stroke-linejoin="round" color="#000" overflow="visible" style="isolation:auto;mix-blend-mode:normal"/><path fill="none" stroke-linecap="round" stroke-linejoin="round" d="M60.493121 1031.6306l-1.93184.5176M59.268388 1030.9235l.517626 1.9318M45.86961 992.23448l-1.732055-1M45.50358 990.86838l-.999995 1.7321"/><circle style="isolation:auto;mix-blend-mode:normal" cx="860.591" cy="549.209" r="1" fill="none" stroke-linecap="round" stroke-linejoin="round" color="#000" overflow="visible" transform="scale(-1 1) rotate(60)"/><path fill="none" stroke-linecap="round" stroke-linejoin="round" d="M54.756772 1009.592l.500057-.8661M56.260382 1006.9876l.500057-.8661M54.023385 1006.8549l.866112.5001M56.627713 1008.3585l.866112.5001"/><g transform="translate(-50.517 19.264)"><path fill="none" stroke-linecap="round" stroke-linejoin="round" d="M54.756773 1011.592l.500057-.8661M56.260383 1008.9876l.500057-.8661M54.023386 1008.8549l.866112.5001M56.627714 1010.3585l.866112.5001"/></g></g></svg>